<svg xmlns="http://www.w3.org/2000/svg" xmlns:xlink="http://www.w3.org/1999/xlink" width="1189" height="887"><linearGradient id="a" gradientUnits="userSpaceOnUse" x1="676.751" y1="290.147" x2="676.751" y2="16.5"><stop offset="0" stop-color="#25a559"/><stop offset="1" stop-color="#30ce68"/></linearGradient><path fill="url(#a)" d="M594.487 16.5c-14.651 0-61.362 22.151-111.534 49.901L870.55 290.146c-1.113-57.23-5.305-108.562-12.612-121.143-6.163-10.626-37.215-33.152-76.09-57.697L678.193 51.472C639.37 31.112 606.378 16.5 594.487 16.5z"/><linearGradient id="b" gradientUnits="userSpaceOnUse" x1="623.131" y1="416.164" x2="623.131" y2="66.401"><stop offset="0" stop-color="#25a559"/><stop offset="1" stop-color="#30ce68"/></linearGradient><path fill="url(#b)" d="M375.408 131.953l492.351 284.211c2.708-35.907 3.643-82.633 2.791-126.018L482.953 66.401c-38.011 21.022-77.979 45.235-107.545 65.552z"/><linearGradient id="c" gradientUnits="userSpaceOnUse" x1="594.457" y1="511.799" x2="594.457" y2="131.953"><stop offset="0" stop-color="#25a559"/><stop offset="1" stop-color="#30ce68"/></linearGradient><path fill="url(#c)" d="M375.408 131.953c-23.216 15.938-40.028 29.451-44.371 37.051-4.447 7.779-7.735 30.065-9.881 59.246l491.18 283.549c23.83-16.282 41.171-30.111 45.603-37.803 4.396-7.614 7.659-29.314 9.821-57.832L375.408 131.953z"/><linearGradient id="d" gradientUnits="userSpaceOnUse" x1="565.331" y1="578.449" x2="565.331" y2="228.039"><stop offset="0" stop-color="#25a559"/><stop offset="1" stop-color="#30ce68"/></linearGradient><path fill="url(#d)" d="M812.516 511.679l-491.345-283.64c-2.725 36.841-3.612 84.725-2.649 128.712L702.56 578.449c38.589-21.233 79.582-46.005 109.956-66.77z"/><linearGradient id="e" gradientUnits="userSpaceOnUse" x1="510.541" y1="626.5" x2="510.541" y2="356.751"><stop offset="0" stop-color="#25a559"/><stop offset="1" stop-color="#30ce68"/></linearGradient><path fill="url(#e)" d="M318.522 356.751c1.22 55.576 5.381 104.831 12.515 117.245C348.286 504.032 560.028 626.5 594.487 626.5c14.314 0 59.225-21.174 108.073-48.051L318.522 356.751z"/><g><image overflow="visible" opacity=".1" width="315" height="427" xlink:href="7820E5FF8C9DC0CC.png" transform="translate(437 111)"/><path fill="#FFF" d="M646.273 345.368v105.574h-17.819a6.55 6.55 0 0 0-6.551 6.545c0 2.37 1.256 4.44 3.138 5.591l40.05 38.391c1.197 1.564 3.574 2.753 5.697 2.753 2.168 0 4.086-1.128 5.275-2.753l42.669-38.397a6.545 6.545 0 0 0 3.123-5.584 6.552 6.552 0 0 0-6.55-6.545h-17.881l-.153-255.099c0-3.613-2.868-6.547-6.483-6.547H652.86c-3.62 0-6.585 2.934-6.585 6.547v98.478l-103.554-.014v-102.25h17.821a6.55 6.55 0 0 0 6.55-6.547 6.542 6.542 0 0 0-3.137-5.59l-40.05-38.389c-1.198-1.565-3.575-2.755-5.698-2.755-2.167 0-4.086 1.13-5.274 2.755l-42.671 38.396a6.54 6.54 0 0 0-3.122 5.582 6.553 6.553 0 0 0 6.551 6.547h17.881l.154 255.099c0 3.613 2.868 6.547 6.483 6.547h37.928c3.62 0 6.585-2.934 6.585-6.547V345.368h103.551z"/></g><path fill-rule="evenodd" clip-rule="evenodd" fill="#39424E" d="M802.556 849.894c-10.98-17.954-22.018-35.873-33.018-53.814-.942-1.535-1.744-3.157-2.78-5.045 2.453-.742 4.271-1.239 6.055-1.84 16.54-5.562 26.731-19.195 27.256-36.434.623-20.414-10.072-34.703-29.938-39.642-4.493-1.116-9.155-2.005-13.761-2.12-14.831-.369-29.672-.358-44.51-.438-8.627-.046-8.781.136-8.782 8.535-.007 43.833-.006 87.665.001 131.497 0 1.551.017 3.108.156 4.651.194 2.154 1.307 3.603 3.596 3.639 4.658.073 9.317.06 13.976.03 2.265-.015 3.492-1.365 3.799-3.479.197-1.355.122-2.756.122-4.135.006-17.257.004-34.515.004-51.77v-6.656c5.193 0 9.644.148 14.079-.052 2.957-.134 4.757.899 6.215 3.515 3.696 6.627 7.665 13.101 11.532 19.632 7.645 12.913 15.341 25.797 22.907 38.758 1.607 2.752 3.343 4.56 6.875 4.295 3.775-.281 7.593.043 11.383-.099 2.447-.092 5.467 1.046 6.956-1.982 1.396-2.836-.817-4.911-2.123-7.046zm-49.409-76.969c-8.726.692-17.542.271-26.32.288-.475.001-.951-.276-1.745-.523v-41.621c.237-.212.486-.631.744-.637 11.341-.264 22.701-1.052 33.976.923 1.688.297 3.371.72 4.99 1.277 11.755 4.056 17.083 16.171 12.178 27.619-1.704 3.977-4.533 7.148-8.497 8.604-4.956 1.819-10.132 3.659-15.326 4.07zm-315.776 43.596c-.075 1.663-.211 3.326-.214 4.99-.021 10.533.021 21.064-.028 31.598-.023 5.083-.699 5.75-5.602 5.837-3.452.062-6.91.104-10.358-.026-3.58-.136-4.432-1.092-4.646-4.737-.061-1.033-.018-2.072-.018-3.108l.001-141.929c0-1.209-.053-2.421.025-3.624.212-3.255 1.188-4.449 4.325-4.593 3.963-.179 7.946-.173 11.91-.003 3.236.138 4.136 1.213 4.348 4.521.088 1.376.031 2.761.031 4.143.001 26.418-.003 52.835.013 79.252.001 1.829.15 3.658.276 6.486 1.854-1.541 3.033-2.396 4.066-3.4 10.397-10.108 20.818-20.196 31.114-30.407 2.117-2.101 4.29-3.141 7.297-3.029 5.001.185 10.014.031 15.02.062 2.041.012 4.327-.331 5.192 2.283.796 2.402-.726 3.853-2.314 5.29a32003.663 32003.663 0 0 0-37.611 34.09c-1.521 1.381-3.004 2.806-4.736 4.428 1.061 1.213 1.876 2.281 2.827 3.211 14.306 14.015 28.63 28.011 42.95 42.012.864.845 1.985 1.557 2.521 2.574.661 1.259 1.467 3.021 1.042 4.107-.425 1.09-2.219 2.078-3.542 2.285-2.36.37-4.819.174-7.235.118-4.641-.108-9.768.893-13.778-.772-3.831-1.589-6.545-5.936-9.67-9.149-9.27-9.528-18.496-19.099-27.747-28.646-1.417-1.462-2.872-2.885-4.31-4.326-.383.152-.766.306-1.149.462zm613.891.145v9.787c0 8.975.051 17.95-.021 26.925-.038 4.574-.963 5.461-5.44 5.562-3.278.075-6.56.075-9.837.001-4.534-.102-5.283-.896-5.48-5.536-.044-1.034-.017-2.071-.017-3.106 0-46.946-.003-93.893.001-140.839 0-8.5.106-8.595 8.732-8.597 2.589 0 5.187-.114 7.765.063 2.856.197 3.97 1.371 4.248 4.191.135 1.368.05 2.759.05 4.14.002 26.407.002 52.814.002 79.222v6.969c2.25-1.926 3.655-3.002 4.915-4.229 9.891-9.632 19.823-19.225 29.58-28.989 2.618-2.62 5.269-4.04 9.082-3.767 4.465.319 8.97.048 13.457.087 2.19.019 4.702-.509 5.796 2.221 1.086 2.716-1.014 4.126-2.641 5.606-12.515 11.379-25.058 22.727-37.584 34.093-1.392 1.264-2.737 2.576-4.508 4.247 1.323 1.427 2.399 2.688 3.58 3.844 14.18 13.885 28.377 27.754 42.568 41.627.74.724 1.738 1.332 2.146 2.212.605 1.308 1.401 3.038.979 4.161-.404 1.075-2.239 2.225-3.481 2.268-6.379.221-12.782.322-19.146-.055-1.741-.104-3.653-1.738-5.017-3.131-11.477-11.707-22.84-23.525-34.248-35.299-1.399-1.443-2.86-2.826-4.292-4.238l-1.189.56zm-443.084-15.971c-1.753-25.802-19.667-43.087-43.333-44.484-20.575-1.215-36.674 6.433-47.712 23.97-6.388 10.148-8.449 21.474-7.34 33.263 1.978 21.008 12.276 36.321 32.109 44.378 11.402 4.633 23.237 4.54 35.049 1.426 10.544-2.779 18.974-8.851 25.896-17.134 3.062-3.665 2.916-5.192-.651-8.146-1.593-1.319-3.25-2.562-4.881-3.837-6.254-4.887-6.168-4.81-11.367 1.084-8.784 9.958-19.796 13.759-32.632 10.229-12.246-3.366-19.378-11.876-22.137-25.259 2.66-.128 4.672-.308 6.686-.31 20.53-.021 41.059-.012 61.589-.015 1.379 0 2.766.059 4.138-.052 3.623-.289 4.509-1.045 4.704-4.775.177-3.436.116-6.903-.118-10.338zm-76.228-2.985c.475-1.847.67-3.347 1.237-4.689 7.092-16.801 24.851-22.39 39.94-15.782 8.339 3.65 12.387 10.892 13.771 20.472l-54.948-.001zm-241.129 54.983c-.5-6.875-.996-13.764-1.089-20.651-.174-12.946.107-25.899-.104-38.846-.312-19.214-10.438-32.073-28.751-35.919-15.866-3.331-30.884-.615-44.596 8.29-1.727 1.121-3.357 2.446-4.847 3.872-2.632 2.517-2.718 3.844-.586 6.698 1.134 1.52 2.427 2.92 3.652 4.371 5.222 6.182 5.168 6.107 11.792 1.26 9.521-6.971 20.148-8.881 31.433-5.764 8.238 2.275 12.553 9.708 10.994 18.251-5.744.246-11.596.438-17.441.764-9.167.511-18.222 1.757-26.835 5.107-8.14 3.165-15.195 7.912-18.337 16.432-6.456 17.499-.035 35.738 19 42.411 8.201 2.875 16.618 2.837 25.057 1.466 7.506-1.221 13.972-4.749 20.381-10.481.489 2.115.766 3.229 1.002 4.352.827 3.924 1.487 4.528 5.496 4.635 2.761.073 5.526.061 8.287.009 5.169-.096 5.869-1.063 5.492-6.257zm-56.529-11.087c-4.479-1.563-7.821-4.248-8.971-9.146-1.327-5.649.048-9.812 4.893-13.022 2.269-1.504 4.806-2.783 7.4-3.585 10.141-3.133 20.587-3.623 31.413-3.438 2.73 20.91-15.558 35.883-34.735 29.191zm667.305 11.573c-.584-6.351-1.189-12.723-1.283-19.093-.216-14.673.14-29.358-.238-44.024-.39-15.074-9.269-26.551-23.493-31.465-9.229-3.19-18.668-3.219-28.124-1.603-9.157 1.563-17.535 5.13-24.77 11.08-4.408 3.625-4.526 5.065-1.005 9.368 1.421 1.736 2.854 3.466 4.339 5.147 3.252 3.687 4.364 3.836 8.097.695 7.657-6.441 16.465-8.983 26.398-8.565 9.529.4 18.686 5.205 18.537 19.196-1.91.199-3.574.446-5.248.533-4.655.238-9.32.312-13.969.63-8.632.592-17.159 1.829-25.309 4.915-7.648 2.896-14.146 7.32-17.945 14.802-8.156 16.064-1.534 35.917 15.083 42.77 15.802 6.516 31.378 5.499 45.59-5.07.907-.674 1.919-1.206 3.153-1.971.37 1.576.623 2.742.918 3.896 1.046 4.095 1.41 4.424 5.602 4.522 2.934.07 5.873.08 8.805-.006 4.426-.125 5.267-1.357 4.862-5.757zm-42.475-10.705c-4.504.558-9.328.069-13.785-.926-5.454-1.216-8.915-4.932-9.563-10.854-.656-5.973 2.095-9.932 7.159-12.539 1.982-1.021 4.05-1.975 6.187-2.58 9.878-2.794 20.005-3.29 30.439-3.26 2.694 11.949-4.908 28.238-20.437 30.159zm83-75.497c2.102-1.47 3.477-2.467 4.888-3.41 12.691-8.48 26.351-9.839 40.494-4.716 12.133 4.396 18.315 14.146 21.158 26.193.902 3.82 1.248 7.849 1.274 11.786.128 18.459.058 36.919.052 55.379 0 1.208.319 2.609-.182 3.57-.633 1.215-1.897 2.865-2.989 2.943-4.633.334-9.304.223-13.958.133-1.979-.038-3.174-1.259-3.336-3.269-.11-1.371-.082-2.757-.082-4.136-.006-14.838.068-29.675-.049-44.511-.036-4.643-.329-9.314-.945-13.914-1.039-7.746-4.01-14.508-12.166-17.062-8.576-2.686-16.763-1.75-23.726 4.5-5.093 4.572-7.652 10.599-8.82 17.171-.66 3.714-.929 7.539-.957 11.316-.107 14.491-.026 28.984-.053 43.476-.011 5.984-.535 6.479-6.489 6.527-2.933.024-5.867.062-8.798-.014-4.324-.113-5.158-.939-5.331-5.107a100.249 100.249 0 0 1-.072-4.104c0-3.017.036-49.375-.052-74.045-.014-3.961-.527-7.916-.65-11.878-.131-4.23.772-5.131 5.074-5.246 3.103-.082 6.21-.06 9.315-.008 4.777.077 5.204.488 5.865 5.201.116.824.271 1.642.535 3.225zm-581.204 94.697c-15.232-.297-28.572-4.865-39.291-15.942-7.302-7.547-11.657-16.661-13.251-26.971-1.944-12.569-.759-24.781 5.403-36.177 8.153-15.074 21.062-23.282 37.754-25.914 10.669-1.682 20.953-.315 30.833 4.084 5.936 2.643 11.035 6.4 15.13 11.44 2.616 3.218 2.434 4.835-.8 7.319-2.871 2.207-5.853 4.271-8.833 6.33-2.158 1.49-4.217 1.405-5.891-.804-7.372-9.724-17.393-11.977-28.64-9.523-11.62 2.535-19.049 10.087-22.495 21.337-2.873 9.379-2.403 18.724 1.55 27.806 9.229 21.205 38.355 23.294 50.039 8.586 2.961-3.728 3.904-3.596 7.744-.876a192.315 192.315 0 0 1 6.641 4.943c3.968 3.078 4.214 4.804.948 8.431-6.273 6.967-13.866 11.951-23.055 14.037-4.506 1.024-9.185 1.287-13.786 1.894zm287.705-95.005c1.676-1.272 2.628-1.977 3.56-2.705 9.124-7.135 19.471-9.195 30.729-7.338 4.304.71 5.161 1.862 4.74 6.329-.275 2.915-.724 5.814-1.151 8.714-.735 4.998-1.885 5.629-6.875 5.065-3.727-.419-7.59-.702-11.273-.188-6.768.944-11.596 4.987-14.749 11.011-3.021 5.772-4.322 11.957-4.32 18.445.003 15.008-.003 30.016-.006 45.024 0 1.208.074 2.423-.037 3.621-.275 2.979-1.246 4.13-4.106 4.242-4.135.163-8.284.165-12.417.002-3.04-.121-3.842-1.041-4.154-4.161-.155-1.539-.08-3.103-.08-4.654-.004-18.459-.028-54.488-.028-55.376-.047-9.829-.322-19.657-.555-29.485-.146-6.164.209-6.615 6.15-6.671 2.76-.026 5.521-.048 8.28.008 4.513.091 4.833.385 5.746 4.876.166.819.279 1.648.546 3.241zM91.799 792.674l-.015 62.641c0 2.427-1.599 3.6-4.097 3.611-4.488.02-8.977.023-13.464-.013-2.513-.021-3.974-1.41-3.974-3.87l.002-136.725c.001-7.511.26-7.743 7.937-7.767 2.417-.008 4.834-.031 7.251.011 5.574.102 6.284.803 6.353 6.266.035 2.762.007 52.401.007 55.025h69.891c0-2.624-.028-52.005.007-54.767.069-5.463.779-6.164 6.353-6.266 2.416-.043 4.833-.019 7.25-.011 7.677.023 7.936.255 7.937 7.767l.003 136.724c0 2.46-1.461 3.85-3.974 3.871-4.488.036-8.976.032-13.464.013-2.498-.013-4.097-1.185-4.097-3.612l-.015-62.898H91.799z"/></svg>